<mxfile host="app.diagrams.net" agent="Mozilla/5.0 (Windows NT 10.0; Win64; x64) AppleWebKit/537.36 (KHTML, like Gecko) Chrome/132.0.0.0 Safari/537.36" version="26.0.12">
  <diagram name="Page-1" id="ZV_OqSpvl_2gobvDDA9a">
    <mxGraphModel dx="704" dy="1474" grid="1" gridSize="10" guides="1" tooltips="1" connect="1" arrows="1" fold="1" page="1" pageScale="1" pageWidth="850" pageHeight="1100" math="0" shadow="0">
      <root>
        <mxCell id="0" />
        <mxCell id="1" parent="0" />
        <mxCell id="1rOna_vOdzG1UsrrnAtX-18" style="edgeStyle=orthogonalEdgeStyle;rounded=0;orthogonalLoop=1;jettySize=auto;html=1;exitX=0.5;exitY=1;exitDx=0;exitDy=0;" edge="1" parent="1" source="1rOna_vOdzG1UsrrnAtX-1">
          <mxGeometry relative="1" as="geometry">
            <mxPoint x="400.31578947368416" y="-960" as="targetPoint" />
          </mxGeometry>
        </mxCell>
        <mxCell id="1rOna_vOdzG1UsrrnAtX-1" value="" style="ellipse;whiteSpace=wrap;html=1;" vertex="1" parent="1">
          <mxGeometry x="340" y="-1080" width="120" height="80" as="geometry" />
        </mxCell>
        <mxCell id="1rOna_vOdzG1UsrrnAtX-2" value="Fillimi" style="text;strokeColor=none;align=center;fillColor=none;html=1;verticalAlign=middle;whiteSpace=wrap;rounded=0;" vertex="1" parent="1">
          <mxGeometry x="370" y="-1055" width="60" height="30" as="geometry" />
        </mxCell>
        <mxCell id="1rOna_vOdzG1UsrrnAtX-21" style="edgeStyle=orthogonalEdgeStyle;rounded=0;orthogonalLoop=1;jettySize=auto;html=1;exitX=0.5;exitY=1;exitDx=0;exitDy=0;" edge="1" parent="1" source="1rOna_vOdzG1UsrrnAtX-4">
          <mxGeometry relative="1" as="geometry">
            <mxPoint x="400.33333333333337" y="-860" as="targetPoint" />
          </mxGeometry>
        </mxCell>
        <mxCell id="1rOna_vOdzG1UsrrnAtX-4" value="" style="rounded=0;whiteSpace=wrap;html=1;" vertex="1" parent="1">
          <mxGeometry x="340" y="-960" width="120" height="70" as="geometry" />
        </mxCell>
        <mxCell id="1rOna_vOdzG1UsrrnAtX-8" value="AKSION, KOMEDI, HORROR,&lt;div&gt;SCI_FI, DRAME&lt;/div&gt;" style="text;strokeColor=none;align=center;fillColor=none;html=1;verticalAlign=middle;whiteSpace=wrap;rounded=0;fontSize=7;" vertex="1" parent="1">
          <mxGeometry x="377.5" y="-940" width="45" height="45" as="geometry" />
        </mxCell>
        <mxCell id="1rOna_vOdzG1UsrrnAtX-12" value="" style="rounded=0;whiteSpace=wrap;html=1;" vertex="1" parent="1">
          <mxGeometry x="340" y="-860" width="120" height="70" as="geometry" />
        </mxCell>
        <mxCell id="1rOna_vOdzG1UsrrnAtX-16" value="Deklarimi i Enum zhanri" style="text;strokeColor=none;align=center;fillColor=none;html=1;verticalAlign=middle;whiteSpace=wrap;rounded=0;fontSize=9;fontStyle=1" vertex="1" parent="1">
          <mxGeometry x="340" y="-960" width="120" height="30" as="geometry" />
        </mxCell>
        <mxCell id="1rOna_vOdzG1UsrrnAtX-17" value="Deklarimi &lt;span class=&quot;hljs-selector-tag&quot;&gt;i&lt;/span&gt; struct Filmi" style="text;strokeColor=none;align=center;fillColor=none;html=1;verticalAlign=middle;whiteSpace=wrap;rounded=0;fontSize=9;fontStyle=1" vertex="1" parent="1">
          <mxGeometry x="340" y="-860" width="120" height="30" as="geometry" />
        </mxCell>
        <mxCell id="1rOna_vOdzG1UsrrnAtX-22" value="string&lt;div&gt;array,&amp;nbsp;&lt;/div&gt;&lt;div&gt;double,&lt;/div&gt;&lt;div&gt;int,&lt;/div&gt;&lt;div&gt;zhanri&lt;/div&gt;" style="text;strokeColor=none;align=center;fillColor=none;html=1;verticalAlign=middle;whiteSpace=wrap;rounded=0;fontSize=8;" vertex="1" parent="1">
          <mxGeometry x="370" y="-830" width="60" height="30" as="geometry" />
        </mxCell>
      </root>
    </mxGraphModel>
  </diagram>
</mxfile>
